<?xml version="1.0"?>
<svg width="16" height="16" xmlns="http://www.w3.org/2000/svg" xmlns:svg="http://www.w3.org/2000/svg" class="bi bi-trash">
 <g class="layer">
  <title>Layer 1</title>
  <path d="m8.14,5.57a0.26,0.49 0 0 1 0.26,0.49l0,5.94a0.26,0.49 0 0 1 -0.52,0l0,-5.94a0.26,0.49 0 0 1 0.26,-0.49m1.3,0a0.26,0.49 0 0 1 0.26,0.49l0,5.94a0.26,0.49 0 0 1 -0.52,0l0,-5.94a0.26,0.49 0 0 1 0.26,-0.49m1.56,0.49a0.26,0.49 0 0 0 -0.52,0l0,5.94a0.26,0.49 0 0 0 0.52,0l0,-5.94z" fill="#7f0000" id="svg_1"/>
  <path d="m14.5,3.12a1.07,1.04 0 0 1 -1.07,1.04l-0.54,0l0,9.35a2.14,2.08 0 0 1 -2.14,2.08l-6.43,0a2.14,2.08 0 0 1 -2.14,-2.08l0,-9.35l-0.54,0a1.07,1.04 0 0 1 -1.07,-1.04l0,-1.04a1.07,1.04 0 0 1 1.07,-1.04l3.75,0a1.07,1.04 0 0 1 1.07,-1.04l2.14,0a1.07,1.04 0 0 1 1.07,1.04l3.75,0a1.07,1.04 0 0 1 1.07,1.04l0,1.04zm-11.13,1.04l-0.13,0.06l0,9.28a1.07,1.04 0 0 0 1.07,1.04l6.43,0a1.07,1.04 0 0 0 1.07,-1.04l0,-9.28l-0.13,-0.06l-8.32,0zm-1.74,-1.04l11.79,0l0,-1.04l-11.79,0l0,1.04z" fill="#ff0000" id="svg_2" transform="matrix(1 0 0 1 0 0)"/>
  <path d="m3.44,5.39a0.36,0.5 0 0 1 0.36,0.5l0,6a0.36,0.5 0 0 1 -0.71,0l0,-6a0.36,0.5 0 0 1 0.36,-0.5m1.78,0a0.36,0.5 0 0 1 0.36,0.5l0,6a0.36,0.5 0 0 1 -0.71,0l0,-6a0.36,0.5 0 0 1 0.36,-0.5m2.14,0.5a0.36,0.5 0 0 0 -0.71,0l0,6a0.36,0.5 0 0 0 0.71,0l0,-6z" fill="#0000ff" id="svg_3" transform="matrix(1 0 0 1 0 0)"/>
 </g>
</svg>